<svg xmlns="http://www.w3.org/2000/svg" viewBox="0 0 1200 80" width="1200" height="80">
  <rect width="1200" height="80" fill="#1C1C1C"/>
  <!-- Repeating Mexican food doodles pattern -->
  <g fill="none" stroke="#D4782F" stroke-width="1.5" opacity="0.6">
    <!-- Taco icons -->
    <g transform="translate(50,40)">
      <path d="M-15,5 Q0,-20 15,5" stroke-linecap="round"/>
      <line x1="-12" y1="5" x2="12" y2="5"/>
      <circle cx="-5" cy="-2" r="2" fill="#D4782F"/>
      <circle cx="5" cy="-5" r="2" fill="#D4782F"/>
      <circle cx="0" cy="-8" r="1.5" fill="#D4782F"/>
    </g>
    <g transform="translate(200,40)">
      <path d="M-15,5 Q0,-20 15,5" stroke-linecap="round"/>
      <line x1="-12" y1="5" x2="12" y2="5"/>
      <circle cx="-5" cy="-2" r="2" fill="#D4782F"/>
      <circle cx="5" cy="-5" r="2" fill="#D4782F"/>
      <circle cx="0" cy="-8" r="1.5" fill="#D4782F"/>
    </g>
    <g transform="translate(500,40)">
      <path d="M-15,5 Q0,-20 15,5" stroke-linecap="round"/>
      <line x1="-12" y1="5" x2="12" y2="5"/>
      <circle cx="-5" cy="-2" r="2" fill="#D4782F"/>
      <circle cx="5" cy="-5" r="2" fill="#D4782F"/>
      <circle cx="0" cy="-8" r="1.5" fill="#D4782F"/>
    </g>
    <g transform="translate(800,40)">
      <path d="M-15,5 Q0,-20 15,5" stroke-linecap="round"/>
      <line x1="-12" y1="5" x2="12" y2="5"/>
      <circle cx="-5" cy="-2" r="2" fill="#D4782F"/>
      <circle cx="5" cy="-5" r="2" fill="#D4782F"/>
      <circle cx="0" cy="-8" r="1.5" fill="#D4782F"/>
    </g>
    <g transform="translate(1050,40)">
      <path d="M-15,5 Q0,-20 15,5" stroke-linecap="round"/>
      <line x1="-12" y1="5" x2="12" y2="5"/>
      <circle cx="-5" cy="-2" r="2" fill="#D4782F"/>
      <circle cx="5" cy="-5" r="2" fill="#D4782F"/>
      <circle cx="0" cy="-8" r="1.5" fill="#D4782F"/>
    </g>
    <!-- Chili pepper icons -->
    <g transform="translate(120,40)">
      <path d="M-8,8 Q-12,-5 0,-12 Q8,-5 5,8 Q2,12 -2,12 Q-6,12 -8,8Z" fill="#C8102E" stroke="#C8102E" opacity="0.4"/>
      <line x1="0" y1="-12" x2="2" y2="-18" stroke="#006847" stroke-width="2"/>
    </g>
    <g transform="translate(350,38)">
      <path d="M-8,8 Q-12,-5 0,-12 Q8,-5 5,8 Q2,12 -2,12 Q-6,12 -8,8Z" fill="#C8102E" stroke="#C8102E" opacity="0.4"/>
      <line x1="0" y1="-12" x2="2" y2="-18" stroke="#006847" stroke-width="2"/>
    </g>
    <g transform="translate(650,40)">
      <path d="M-8,8 Q-12,-5 0,-12 Q8,-5 5,8 Q2,12 -2,12 Q-6,12 -8,8Z" fill="#C8102E" stroke="#C8102E" opacity="0.4"/>
      <line x1="0" y1="-12" x2="2" y2="-18" stroke="#006847" stroke-width="2"/>
    </g>
    <g transform="translate(950,38)">
      <path d="M-8,8 Q-12,-5 0,-12 Q8,-5 5,8 Q2,12 -2,12 Q-6,12 -8,8Z" fill="#C8102E" stroke="#C8102E" opacity="0.4"/>
      <line x1="0" y1="-12" x2="2" y2="-18" stroke="#006847" stroke-width="2"/>
    </g>
    <!-- Star/sun accents -->
    <g transform="translate(280,40)" stroke="#E8A317" opacity="0.5">
      <line x1="0" y1="-8" x2="0" y2="8"/>
      <line x1="-8" y1="0" x2="8" y2="0"/>
      <line x1="-5" y1="-5" x2="5" y2="5"/>
      <line x1="5" y1="-5" x2="-5" y2="5"/>
    </g>
    <g transform="translate(580,40)" stroke="#E8A317" opacity="0.5">
      <line x1="0" y1="-8" x2="0" y2="8"/>
      <line x1="-8" y1="0" x2="8" y2="0"/>
      <line x1="-5" y1="-5" x2="5" y2="5"/>
      <line x1="5" y1="-5" x2="-5" y2="5"/>
    </g>
    <g transform="translate(880,40)" stroke="#E8A317" opacity="0.5">
      <line x1="0" y1="-8" x2="0" y2="8"/>
      <line x1="-8" y1="0" x2="8" y2="0"/>
      <line x1="-5" y1="-5" x2="5" y2="5"/>
      <line x1="5" y1="-5" x2="-5" y2="5"/>
    </g>
    <g transform="translate(1150,40)" stroke="#E8A317" opacity="0.5">
      <line x1="0" y1="-8" x2="0" y2="8"/>
      <line x1="-8" y1="0" x2="8" y2="0"/>
      <line x1="-5" y1="-5" x2="5" y2="5"/>
      <line x1="5" y1="-5" x2="-5" y2="5"/>
    </g>
  </g>
  <!-- Decorative border lines -->
  <line x1="0" y1="2" x2="1200" y2="2" stroke="#D4782F" stroke-width="2" opacity="0.3"/>
  <line x1="0" y1="78" x2="1200" y2="78" stroke="#D4782F" stroke-width="2" opacity="0.3"/>
</svg>
